<mxfile host="app.diagrams.net" modified="2023-09-22T02:56:15.687Z" agent="Mozilla/5.0 (Macintosh; Intel Mac OS X 10_15_7) AppleWebKit/537.36 (KHTML, like Gecko) Chrome/116.0.0.0 Safari/537.36" version="21.6.9" etag="zGvEI50o9Xdt1tE0ue0S" type="github">
  <diagram name="第 1 页" id="VTbS61FD_6MGBcuQWQnt">
    <mxGraphModel>
      <root>
        <mxCell id="0" />
        <mxCell id="1" parent="0" />
      </root>
    </mxGraphModel>
  </diagram>
</mxfile>
